<?xml version="1.0" encoding="utf-8"?>
<!-- Generator: Adobe Illustrator 24.1.2, SVG Export Plug-In . SVG Version: 6.00 Build 0)  -->
<svg version="1.1" id="Bold" xmlns="http://www.w3.org/2000/svg" xmlns:xlink="http://www.w3.org/1999/xlink" x="0px" y="0px"
	 viewBox="0 0 512 512" style="enable-background:new 0 0 512 512;" xml:space="preserve">
<style type="text/css">
	.st0{fill:#FFFFFF;}
</style>
<g id="XMLID_1_">
	<g>
		<path class="st0" d="M512,262.2c0,111-73.3,205.3-175.7,238.4c-13.1,2.5-17.6-5.4-17.6-11.9c0-8.2,0.3-35.2,0.3-68.9
			c0-23.6-8.3-39-17.3-46.5c57-6.2,116.8-27.5,116.8-124.1c0-27.5-9.9-49.9-26.2-67.5c2.6-6.4,11.2-31.9-2.6-66.6
			c0,0-21.4-6.7-70.1,25.8c-20.5-5.6-42.2-8.4-64-8.5c-21.8,0.1-43.5,2.9-64,8.5c-49-32.5-70.4-25.8-70.4-25.8
			c-13.8,34.6-5.1,60.2-2.2,66.6c-16.4,17.6-26.3,40-26.3,67.5c0,96.4,59.8,118,116.6,124.3c-7.3,6.3-13.9,17.4-16.2,33.6
			c-14.6,6.4-51.7,17.5-74.6-20.9c0,0-13.5-24.2-39.2-25.9c0,0-25-0.3-1.8,15.3c0,0,16.8,7.8,28.5,36.8c0,0,15,48.9,86.2,33.8
			c0.1,21,0.3,36.8,0.3,42.8c0,6.7-4.7,14.5-17.5,12.1C73.3,467.7,0,373.4,0,262.2C0,123.3,114.6,10.7,256,10.7
			C397.4,10.7,512,123.3,512,262.2z"/>
	</g>
	<g>
	</g>
</g>
</svg>
